<?xml version="1.0" standalone="no"?>
<!DOCTYPE svg PUBLIC "-//W3C//DTD SVG 20010904//EN"
 "http://www.w3.org/TR/2001/REC-SVG-20010904/DTD/svg10.dtd">
<svg version="1.0" xmlns="http://www.w3.org/2000/svg"
 width="225.000000pt" height="225.000000pt" viewBox="0 0 225.000000 225.000000"
 preserveAspectRatio="xMidYMid meet">

<g transform="translate(0.000000,225.000000) scale(0.100000,-0.100000)"
fill="#000000" stroke="none">
<path d="M976 2179 c-142 -21 -331 -93 -441 -169 l-47 -32 -73 72 c-40 40 -75
68 -78 64 -10 -19 -158 -576 -154 -581 5 -4 561 144 581 155 4 2 -21 33 -55
69 -74 74 -76 68 46 129 110 54 195 75 331 81 248 11 450 -65 627 -236 344
-332 344 -880 0 -1212 -164 -159 -361 -239 -586 -239 l-93 0 -11 -102 c-7 -57
-10 -105 -7 -107 21 -22 263 -6 379 24 482 126 822 592 792 1085 -11 168 -44
288 -121 437 -207 399 -649 626 -1090 562z m396 -67 c289 -78 524 -266 658
-528 83 -162 116 -320 107 -513 -12 -257 -109 -475 -296 -662 -188 -187 -405
-284 -663 -296 l-117 -6 5 39 c12 87 3 80 111 87 389 23 711 287 815 669 32
118 32 326 0 446 -86 319 -324 557 -644 644 -68 19 -108 23 -223 23 -185 0
-304 -32 -451 -119 -110 -65 -107 -57 -45 -120 30 -31 53 -58 50 -60 -10 -10
-420 -118 -426 -113 -6 6 103 416 113 426 2 3 31 -21 63 -53 l58 -57 88 57
c104 68 227 119 344 145 116 25 341 21 453 -9z"/>
<path d="M1070 1571 l0 -59 -46 -11 c-138 -35 -212 -168 -155 -280 27 -52 67
-80 224 -155 140 -67 161 -86 155 -133 -10 -84 -202 -97 -350 -24 l-38 18 0
-72 0 -73 48 -16 c26 -9 73 -19 105 -23 l57 -6 0 -58 0 -59 55 0 55 0 0 58 0
59 58 16 c102 29 162 99 162 191 0 110 -58 163 -281 255 -105 44 -135 80 -115
139 21 62 184 75 302 22 l44 -19 0 69 0 69 -52 16 c-28 8 -67 15 -85 15 l-33
0 0 60 0 60 -55 0 -55 0 0 -59z"/>
<path d="M60 1121 c0 -79 1 -81 23 -77 12 3 61 8 110 11 l87 7 0 64 0 64 -42
0 c-24 0 -73 3 -110 7 l-68 6 0 -82z"/>
<path d="M203 829 l-92 -30 18 -47 c11 -26 24 -59 31 -74 l13 -27 94 47 c103
51 101 47 68 125 -8 20 -21 37 -28 36 -6 0 -54 -14 -104 -30z"/>
<path d="M392 514 c-91 -76 -91 -73 -20 -142 l44 -43 74 81 73 82 -45 44 -44
45 -82 -67z"/>
<path d="M677 289 c-51 -95 -54 -104 -34 -112 6 -3 38 -17 69 -31 l57 -25 31
92 c17 51 34 97 36 103 3 6 -22 22 -54 36 l-58 25 -47 -88z"/>
</g>
</svg>
