<?xml version="1.0" encoding="iso-8859-1"?>
<!-- Uploaded to: SVG Repo, www.svgrepo.com, Generator: SVG Repo Mixer Tools -->
<svg height="800px" width="800px" version="1.1" id="Layer_1" xmlns="http://www.w3.org/2000/svg" xmlns:xlink="http://www.w3.org/1999/xlink" 
	 viewBox="0 0 511.999 511.999" xml:space="preserve">
<circle style="fill:#CEE8FA;" cx="255.997" cy="255.997" r="167.991"/>
<g>
	<path style="fill:#2D527C;" d="M255.999,0c-7.663,0-13.877,6.213-13.877,13.877s6.214,13.877,13.877,13.877
		c57.945,0,110.905,21.716,151.199,57.422l-32.782,32.781c-32.95-28.356-74.49-43.824-118.416-43.824
		c-45.157,0-86.517,16.549-118.35,43.892L95.044,75.42c-0.074-0.074-0.155-0.136-0.23-0.208c-0.072-0.075-0.135-0.157-0.208-0.23
		c-5.42-5.419-14.204-5.419-19.626,0C26.628,123.334,0,187.622,0,255.999c0,141.159,114.842,255.999,255.999,255.999
		c68.38,0,132.668-26.628,181.02-74.981s74.98-112.64,74.98-181.018C512,114.842,397.158,0,255.999,0z M365.043,147.093
		c5.415,5.423,14.2,5.427,19.624,0.011c0.402-0.402,0.766-0.828,1.109-1.264c0.029-0.029,0.061-0.053,0.09-0.082l40.958-40.957
		c32.834,37.053,53.823,84.82,56.987,137.322h-15.439c-7.663,0-13.877,6.213-13.877,13.877s6.214,13.877,13.877,13.877h15.445
		c-3.047,51.144-22.905,99.081-56.914,137.401l-32.929-32.929c27.344-31.832,43.892-73.192,43.892-118.35
		c0-7.664-6.214-13.877-13.877-13.877s-13.877,6.213-13.877,13.877c0,84.978-69.135,154.114-154.114,154.114
		s-154.114-69.135-154.114-154.114s69.135-154.114,154.114-154.114C297.201,101.887,335.926,117.942,365.043,147.093z
		 M255.999,453.157c-7.663,0-13.877,6.213-13.877,13.877v16.777c-52.502-3.165-100.27-24.154-137.322-56.987l32.85-32.849
		c31.833,27.344,73.192,43.892,118.35,43.892s86.517-16.549,118.35-43.892l32.929,32.929
		c-38.319,34.009-86.257,53.866-137.402,56.912v-16.782C269.876,459.37,263.663,453.157,255.999,453.157z M28.188,269.876h46.47
		c3.011,39.73,18.85,75.932,43.367,104.473l-32.85,32.849C52.341,370.146,31.353,322.38,28.188,269.876z M85.096,104.722
		l32.929,32.929c-24.516,28.542-40.355,64.743-43.367,104.473H28.182C31.229,190.98,51.087,143.042,85.096,104.722z"/>
	<path style="fill:#2D527C;" d="M298.986,264.134c12.307-10.521,19.559-26.085,19.559-42.309c0-30.663-24.945-55.608-55.609-55.608
		l-45.663,0.006c-5.492,0-9.944,4.453-9.944,9.945v3.355v17.079v160.381c0,1.99,1.612,3.602,3.602,3.602h19.395
		c1.99,0,3.602-1.612,3.602-3.602v-79.545h29.011l0.273-0.004c15.846,0.147,28.737,13.161,28.737,29.008v50.542
		c0,1.99,1.612,3.602,3.602,3.602h19.395c1.99,0,3.602-1.612,3.602-3.602v-50.542C318.547,290.219,311.294,274.654,298.986,264.134z
		 M262.938,250.834h-29.011v-58.013h29.011l0.289-0.004c15.837,0.154,28.721,13.166,28.721,29.008
		C291.947,237.82,278.933,250.834,262.938,250.834z"/>
</g>
</svg>